<?xml version="1.0" encoding="UTF-8"?>
<svg version="1.1" xmlns="http://www.w3.org/2000/svg" width="512" height="512">
<path d="M0 0 C0.82371094 0.68835938 1.64742187 1.37671875 2.49609375 2.0859375 C25.46334022 21.93594459 41.01332633 51.43765605 43.287323 81.84158325 C43.93579078 92.62808428 44.14860102 103.37582801 44.1328125 114.1796875 C44.13348916 115.85157281 44.13446217 117.52345803 44.13571167 119.19534302 C44.1371692 122.66246497 44.13509611 126.12956081 44.13037109 129.59667969 C44.12464797 134.00726819 44.12798153 138.41779615 44.13394356 142.82838249 C44.13757932 146.26704352 44.13639726 149.70569048 44.13381577 153.14435196 C44.13315621 154.77001071 44.13394027 156.3956708 44.13629532 158.02132797 C44.17147972 189.08814427 44.17147972 189.08814427 34.07421875 201.3359375 C24.21383711 210.70231204 9.48667377 210.84342405 -3.40673828 211.54638672 C-4.18920992 211.58906111 -4.97168156 211.6317355 -5.77786446 211.67570305 C-13.87184608 212.08741031 -21.95202488 212.14451528 -30.0546875 212.1328125 C-31.68435187 212.13400599 -33.31401603 212.13553289 -34.94367981 212.13735962 C-40.25413671 212.14111663 -45.56455084 212.13346241 -50.875 212.125 C-52.72726435 212.12272053 -54.57952876 212.12048297 -56.43179321 212.11828613 C-68.45326927 212.10243589 -80.47462935 212.06669945 -92.49603271 212.02282715 C-96.9140382 212.00684104 -101.33204294 211.99307965 -105.75006104 211.9810791 C-118.37560564 211.94636371 -131.00087159 211.89694041 -143.626194 211.81288338 C-149.1961805 211.77585046 -154.76602799 211.74480799 -160.33612061 211.72955322 C-165.59930456 211.71458155 -170.86202783 211.68037765 -176.12500572 211.63181686 C-178.06182621 211.61707874 -179.99871057 211.60895718 -181.93558693 211.60808182 C-196.20800946 211.59539607 -207.09404914 210.75491916 -217.8359375 200.37109375 C-226.82005468 190.52748522 -228.15352949 179.60303035 -228.14526367 166.75244141 C-228.15030159 165.59656021 -228.15030159 165.59656021 -228.15544128 164.41732788 C-228.1648583 161.89538918 -228.16689034 159.37351764 -228.16796875 156.8515625 C-228.17118996 155.07148208 -228.17455465 153.29140191 -228.17805481 151.51132202 C-228.18402467 147.78439726 -228.18589714 144.0574956 -228.18530273 140.33056641 C-228.18520175 135.60984941 -228.19879762 130.88928497 -228.21607494 126.1686039 C-228.22733048 122.48944452 -228.22921777 118.81032029 -228.22869301 115.13114548 C-228.22985502 113.39404149 -228.23417355 111.65693603 -228.24202538 109.9198494 C-228.30610581 94.26692738 -227.61424183 78.4892415 -223.75 63.25 C-223.53384033 62.37786865 -223.31768066 61.5057373 -223.0949707 60.60717773 C-214.69177055 27.99197628 -193.60115471 3.88435118 -165.125 -13.3125 C-116.08936742 -40.28485583 -42.75881884 -36.1857516 0 0 Z " fill="#000000" transform="translate(348,268)"/>
<path d="M0 0 C16.42847187 13.29730272 28.90594104 33.54672124 31.390625 54.74609375 C32.45354971 69.43631793 32.34190611 83.76887069 27.390625 97.74609375 C27.02839844 98.80441406 26.66617188 99.86273438 26.29296875 100.953125 C21.7885557 112.84782929 14.24643752 122.7375948 5.390625 131.74609375 C4.70484375 132.44476563 4.0190625 133.1434375 3.3125 133.86328125 C-14.23695599 150.56776343 -37.646945 156.43020066 -61.21875 155.99609375 C-81.77167303 155.27996403 -100.41876623 146.21788746 -115.609375 132.74609375 C-116.30804688 132.1428125 -117.00671875 131.53953125 -117.7265625 130.91796875 C-132.85795772 116.94117799 -142.22607212 95.59311758 -143.04296875 75.1328125 C-143.06663609 72.89986463 -143.06750595 70.66657174 -143.046875 68.43359375 C-143.03785156 67.25297363 -143.02882812 66.07235352 -143.01953125 64.85595703 C-142.53223939 40.19019063 -131.94178372 19.41511778 -114.359375 2.43359375 C-81.6382226 -25.8657813 -33.78484853 -26.32266111 0 0 Z " fill="#000000" transform="translate(311.609375,51.25390625)"/>
<path d="M0 0 C2.21579983 0.01605652 4.4297632 0.00005828 6.64550781 -0.01904297 C26.57802557 -0.04876547 42.17260013 4.1984956 58.84863281 15.39111328 C57.30797995 19.03341759 55.08912051 21.3807375 52.34863281 24.20361328 C46.28120823 30.68588555 41.46763888 37.82852833 36.84863281 45.39111328 C36.48495605 45.98375977 36.1212793 46.57640625 35.74658203 47.18701172 C18.47829884 75.89045244 15.45613115 110.2772986 15.65332031 143.03564453 C15.65706585 144.91134996 15.6599055 146.78705739 15.66189575 148.6627655 C15.66941121 153.52051517 15.68895047 158.37813884 15.71130371 163.23583984 C15.73202794 168.22442929 15.74095336 173.21303977 15.75097656 178.20166016 C15.77221214 187.93153222 15.80619523 197.66131214 15.84863281 207.39111328 C7.02492853 207.48417097 -1.79860443 207.55505829 -10.62269402 207.59836197 C-14.7209709 207.61915529 -18.81890977 207.64731975 -22.91699219 207.69287109 C-26.87870691 207.73662648 -30.8400984 207.76031233 -34.80203629 207.77062225 C-36.30659186 207.7779608 -37.81113159 207.79229011 -39.31554794 207.81403351 C-50.45278257 207.96846402 -60.1222428 207.04384203 -68.61621094 199.17236328 C-73.34992258 193.67981237 -76.26523736 187.47684856 -76.29853821 180.22721863 C-76.30569351 179.157901 -76.31284882 178.08858337 -76.32022095 176.98686218 C-76.32290985 175.81339737 -76.32559875 174.63993256 -76.32836914 173.4309082 C-76.33494034 172.19474762 -76.34151154 170.95858704 -76.34828186 169.68496704 C-76.36804243 165.58050292 -76.37969163 161.47607797 -76.38964844 157.37158203 C-76.39369786 155.95443515 -76.39781483 154.53728847 -76.40199852 153.12014198 C-76.42105802 146.45340242 -76.43528089 139.7866739 -76.44361049 133.11991233 C-76.45335101 125.45197261 -76.47958322 117.78432403 -76.52011138 110.11648673 C-76.55042442 104.17485299 -76.5650941 98.23330189 -76.5683915 92.29159242 C-76.57072706 88.75090093 -76.57948799 85.21052008 -76.60485268 81.66991234 C-76.63279696 77.7047368 -76.62825623 73.73993271 -76.62133789 69.7746582 C-76.63414795 68.62345993 -76.64695801 67.47226166 -76.66015625 66.28617859 C-76.54724957 48.39468586 -69.51808661 32.73077615 -57.03417969 20.11376953 C-40.71000853 4.69649677 -21.82899468 -0.18710567 0 0 Z " fill="#000000" transform="translate(76.1513671875,239.60888671875)"/>
<path d="M0 0 C2.25537522 0.00316083 4.50943387 -0.0204057 6.76464844 -0.0456543 C19.36850494 -0.10289845 31.99194054 0.89895489 43.26464844 7.06567383 C43.93036865 7.4149292 44.59608887 7.76418457 45.28198242 8.12402344 C50.60526965 10.9911079 55.39775869 14.25336189 59.88964844 18.31567383 C60.499375 18.84547852 61.10910156 19.3752832 61.73730469 19.92114258 C72.12053183 29.52848022 80.08886576 44.85531873 81.08147812 59.06103325 C81.16315462 62.31907739 81.18273553 65.5719775 81.18017578 68.83105469 C81.18689301 70.0662233 81.19361023 71.30139191 81.20053101 72.57398987 C81.21621119 75.94185739 81.22288221 79.30947822 81.22416258 82.67736506 C81.22558972 84.78610129 81.22986982 86.89481207 81.23515701 89.00354195 C81.25362311 96.37314609 81.26183159 103.74267817 81.26025391 111.11230469 C81.25905219 117.96181701 81.28016891 124.81101441 81.31174123 131.66044706 C81.3379563 137.55965358 81.34861908 143.45875752 81.34734309 149.3580218 C81.34683515 152.87330995 81.35242474 156.38831762 81.37369919 159.90354729 C81.39679459 163.82612119 81.38752868 167.74826778 81.37548828 171.67089844 C81.38672729 172.82286713 81.39796631 173.97483582 81.4095459 175.16171265 C81.33233732 185.08153136 78.64284405 192.23100033 71.88964844 199.52270508 C65.38359526 205.35528009 58.86970874 207.4453356 50.28515625 207.42919922 C49.30404625 207.42941826 49.30404625 207.42941826 48.30311584 207.42964172 C46.14963418 207.42894724 43.99623992 207.42117666 41.84277344 207.41333008 C40.3463343 207.41146425 38.84989455 207.41004112 37.35345459 207.40904236 C33.42106429 207.40523018 29.48871111 207.395411 25.55633545 207.38433838 C21.5411428 207.37409632 17.52594414 207.36953875 13.51074219 207.36450195 C5.63702726 207.35378755 -2.23665753 207.33672674 -10.11035156 207.31567383 C-11.34370285 203.5058341 -11.22976624 199.73186239 -11.19213867 195.77514648 C-11.18907211 195.0198616 -11.18600555 194.26457672 -11.18284607 193.48640442 C-11.17569716 191.84569871 -11.16631035 190.20500157 -11.1549511 188.56431961 C-11.13746451 185.94516683 -11.12722666 183.32607608 -11.11903381 180.70687866 C-11.09469884 173.25870884 -11.05971464 165.8106204 -11.0144043 158.36254883 C-10.71156047 106.75804679 -14.19491605 59.69720666 -51.39550781 20.33911133 C-53.11035156 18.31567383 -53.11035156 18.31567383 -54.11035156 15.31567383 C-37.39775229 2.98018389 -20.38870775 -0.05950012 0 0 Z " fill="#000000" transform="translate(431.1103515625,239.684326171875)"/>
<path d="M0 0 C1.10021484 0.71929687 1.10021484 0.71929687 2.22265625 1.453125 C13.93888444 9.73286087 20.96796641 22.1169857 24 36 C25.51915248 54.67195554 22.45855615 69.93420352 10.375 84.625 C0.71152347 95.00497004 -12.37614148 101.39491715 -26.56640625 102.203125 C-44.01574523 102.40780933 -58.00402463 98.09743407 -71 86 C-83.22186758 73.02787916 -86.64708834 58.44045735 -86.30859375 41.21484375 C-85.70397572 27.26347078 -79.16178742 16.22305019 -70 6 C-50.07016132 -10.14238572 -22.188576 -15.39792019 0 0 Z " fill="#000000" transform="translate(463,105)"/>
<path d="M0 0 C1.10021484 0.71929687 1.10021484 0.71929687 2.22265625 1.453125 C13.93888444 9.73286087 20.96796641 22.1169857 24 36 C25.51915248 54.67195554 22.45855615 69.93420352 10.375 84.625 C0.71152347 95.00497004 -12.37614148 101.39491715 -26.56640625 102.203125 C-44.01574523 102.40780933 -58.00402463 98.09743407 -71 86 C-83.22186758 73.02787916 -86.64708834 58.44045735 -86.30859375 41.21484375 C-85.70397572 27.26347078 -79.16178742 16.22305019 -70 6 C-50.07016132 -10.14238572 -22.188576 -15.39792019 0 0 Z " fill="#000000" transform="translate(111,105)"/>
</svg>
