<svg width="32" height="32" viewBox="0 0 32 32" fill="none" xmlns="http://www.w3.org/2000/svg">
<path d="M0 8C0 3.58172 3.58172 0 8 0H24C28.4183 0 32 3.58172 32 8V24C32 28.4183 28.4183 32 24 32H8C3.58172 32 0 28.4183 0 24V8Z" fill="#F59E0B"/>
<path d="M16 12.6667C14.6192 12.6667 13.5 13.4125 13.5 14.3333C13.5 15.2542 14.6192 16 16 16C17.3808 16 18.5 16.7458 18.5 17.6667C18.5 18.5875 17.3808 19.3333 16 19.3333M16 12.6667C16.925 12.6667 17.7333 13.0017 18.1658 13.5M16 12.6667V11.8333M16 12.6667V19.3333M16 19.3333V20.1667M16 19.3333C15.075 19.3333 14.2667 18.9983 13.8342 18.5M23.5 16C23.5 16.9849 23.306 17.9602 22.9291 18.8701C22.5522 19.7801 21.9997 20.6069 21.3033 21.3033C20.6069 21.9997 19.7801 22.5522 18.8701 22.9291C17.9602 23.306 16.9849 23.5 16 23.5C15.0151 23.5 14.0398 23.306 13.1299 22.9291C12.2199 22.5522 11.3931 21.9997 10.6967 21.3033C10.0003 20.6069 9.44781 19.7801 9.0709 18.8701C8.69399 17.9602 8.5 16.9849 8.5 16C8.5 14.0109 9.29018 12.1032 10.6967 10.6967C12.1032 9.29018 14.0109 8.5 16 8.5C17.9891 8.5 19.8968 9.29018 21.3033 10.6967C22.7098 12.1032 23.5 14.0109 23.5 16Z" stroke="white" stroke-linecap="round" stroke-linejoin="round"/>
</svg>
