<svg width="10" height="11" viewBox="0 0 10 11" fill="none" xmlns="http://www.w3.org/2000/svg">
<path d="M7.84967 3.82413V2.81818C7.84967 1.65435 7.84967 1.0727 7.46217 0.711152C7.07416 0.349609 6.45066 0.349609 5.20215 0.349609H2.99713C1.74862 0.349609 1.12512 0.349609 0.737112 0.711152C0.349109 1.0727 0.349609 1.65435 0.349609 2.81818V6.10961C0.349609 7.27344 0.349609 7.8551 0.737112 8.21664C1.12512 8.57819 1.74862 8.57819 2.99713 8.57819H5.20215" stroke="#333333" stroke-width="0.7" stroke-linecap="round"/>
<path d="M1.84961 2.40723H6.34964M1.84961 4.46437H2.34961M3.84963 4.46437H4.34963M5.84964 4.46437H6.34964M1.84961 6.52151H2.34961M3.84963 6.52151H4.34963" stroke="#333333" stroke-width="0.7" stroke-linecap="round" stroke-linejoin="round"/>
<path d="M9.20263 7.0371C9.06563 6.67967 8.71263 6.26053 7.90962 6.26053C6.97661 6.26053 6.58361 6.70025 6.50411 6.93527C6.37961 7.2495 6.36811 7.92785 7.49862 7.96642C8.84863 8.0127 9.41363 8.20145 9.34363 8.96259C9.27413 9.72373 8.49613 9.82968 7.90962 9.87082C7.30712 9.85282 6.56211 9.72322 6.34961 9.06596M7.84662 5.49219V6.2307M7.85112 9.86825V10.635" stroke="#333333" stroke-width="0.7" stroke-linecap="round"/>
</svg>
