<svg width="54" height="65" viewBox="0 0 54 65" fill="none" xmlns="http://www.w3.org/2000/svg">
<g filter="url(#filter0_d_1_764)">
<circle cx="25" cy="35" r="3" fill="#008DE7"/>
</g>
<path d="M33.04 6.82L27.28 2.79C25.71 1.69 23.3 1.75 21.79 2.92L16.78 6.83C15.78 7.61 14.99 9.21 14.99 10.47V17.37C14.99 19.92 17.06 22 19.61 22H30.39C32.94 22 35.01 19.93 35.01 17.38V10.6C35.01 9.25 34.14 7.59 33.04 6.82ZM25.75 18C25.75 18.41 25.41 18.75 25 18.75C24.59 18.75 24.25 18.41 24.25 18V15C24.25 14.59 24.59 14.25 25 14.25C25.41 14.25 25.75 14.59 25.75 15V18Z" fill="#008DE7"/>
<defs>
<filter id="filter0_d_1_764" x="0" y="11" width="54" height="54" filterUnits="userSpaceOnUse" color-interpolation-filters="sRGB">
<feFlood flood-opacity="0" result="BackgroundImageFix"/>
<feColorMatrix in="SourceAlpha" type="matrix" values="0 0 0 0 0 0 0 0 0 0 0 0 0 0 0 0 0 0 127 0" result="hardAlpha"/>
<feOffset dx="2" dy="3"/>
<feGaussianBlur stdDeviation="12"/>
<feComposite in2="hardAlpha" operator="out"/>
<feColorMatrix type="matrix" values="0 0 0 0 0.760784 0 0 0 0 0.352941 0 0 0 0 0.901961 0 0 0 0.17 0"/>
<feBlend mode="normal" in2="BackgroundImageFix" result="effect1_dropShadow_1_764"/>
<feBlend mode="normal" in="SourceGraphic" in2="effect1_dropShadow_1_764" result="shape"/>
</filter>
</defs>
</svg>
