<svg width="20" height="20" viewBox="0 0 20 20" fill="none" xmlns="http://www.w3.org/2000/svg">
<path d="M12.0827 10.0046C12.0823 10.6144 11.9739 11.2193 11.7627 11.7913C11.2011 12.0063 10.6048 12.1164 10.0035 12.1163H9.99518C9.39413 12.1163 8.79817 12.0062 8.23685 11.7913C8.02502 11.2194 7.91611 10.6145 7.91518 10.0046V9.99628C7.91518 9.36711 8.02935 8.76544 8.23518 8.20878C8.79702 7.99368 9.39357 7.88352 9.99518 7.88378H10.0018C10.621 7.88378 11.2143 7.99961 11.7618 8.20878C11.9735 8.78044 12.0818 9.38544 12.0818 9.99628L12.0827 10.0046ZM18.2168 8.58961H13.3527L16.7918 5.09628C16.253 4.32658 15.5891 3.65254 14.8277 3.10211L11.3877 6.59544V1.65461C10.9306 1.57703 10.4679 1.53773 10.0043 1.53711H9.99518C9.52296 1.53822 9.06157 1.57739 8.61102 1.65461V6.59544L5.17018 3.10211C4.79074 3.376 4.43629 3.68044 4.10685 4.01544L4.10518 4.01711C3.77629 4.351 3.47685 4.711 3.20685 5.09711L6.64685 8.58961H1.78268C1.78268 8.58961 1.66602 9.51794 1.66602 9.99794V10.0038C1.66657 10.4838 1.70546 10.9529 1.78268 11.4113H6.64685L3.20602 14.9038C3.74622 15.6728 4.41023 16.347 5.17102 16.8988L8.61102 13.4063V18.3471C9.0678 18.4244 9.53024 18.4634 9.99352 18.4638H10.0052C10.4685 18.4638 10.9296 18.4249 11.3885 18.3471V13.4054L14.8277 16.8996C15.2071 16.6246 15.5618 16.3202 15.8918 15.9863H15.8927C16.2216 15.6507 16.5213 15.2904 16.7918 14.9054L13.3518 11.4113H18.2177C18.2938 10.9535 18.3321 10.4854 18.3327 10.0071V9.99461C18.3327 9.52294 18.2943 9.05489 18.2177 8.59044" fill="#D97706"/>
</svg>
