<svg width="6" height="9" viewBox="0 0 6 9" fill="none" xmlns="http://www.w3.org/2000/svg">
<path d="M2.91667 3.95833C2.6404 3.95833 2.37545 3.84859 2.1801 3.65324C1.98475 3.45789 1.875 3.19293 1.875 2.91667C1.875 2.6404 1.98475 2.37545 2.1801 2.1801C2.37545 1.98475 2.6404 1.875 2.91667 1.875C3.19293 1.875 3.45789 1.98475 3.65324 2.1801C3.84859 2.37545 3.95833 2.6404 3.95833 2.91667C3.95833 3.05346 3.93139 3.18891 3.87904 3.3153C3.82669 3.44168 3.74996 3.55651 3.65324 3.65324C3.55651 3.74996 3.44168 3.82669 3.3153 3.87904C3.18891 3.93139 3.05346 3.95833 2.91667 3.95833ZM2.91667 0C2.14312 0 1.40125 0.307291 0.854272 0.854272C0.307291 1.40125 0 2.14312 0 2.91667C0 5.10417 2.91667 8.33333 2.91667 8.33333C2.91667 8.33333 5.83333 5.10417 5.83333 2.91667C5.83333 2.14312 5.52604 1.40125 4.97906 0.854272C4.43208 0.307291 3.69021 0 2.91667 0Z" fill="#777777" fill-opacity="0.466667"/>
</svg>
