<svg width="16" height="16" viewBox="0 0 16 16" fill="none" xmlns="http://www.w3.org/2000/svg">
<g clip-path="url(#clip0_234_1638)">
<path d="M4.00065 12H2.66732C2.3137 12 1.97456 11.8595 1.72451 11.6095C1.47446 11.3594 1.33398 11.0203 1.33398 10.6667V7.33333C1.33398 6.97971 1.47446 6.64057 1.72451 6.39052C1.97456 6.14048 2.3137 6 2.66732 6H13.334C13.6876 6 14.0267 6.14048 14.2768 6.39052C14.5268 6.64057 14.6673 6.97971 14.6673 7.33333V10.6667C14.6673 11.0203 14.5268 11.3594 14.2768 11.6095C14.0267 11.8595 13.6876 12 13.334 12H12.0007" stroke="#374151" stroke-width="2" stroke-linecap="round" stroke-linejoin="round"/>
<path d="M4 5.99967V1.99967C4 1.82286 4.07024 1.65329 4.19526 1.52827C4.32029 1.40325 4.48986 1.33301 4.66667 1.33301H11.3333C11.5101 1.33301 11.6797 1.40325 11.8047 1.52827C11.9298 1.65329 12 1.82286 12 1.99967V5.99967" stroke="#374151" stroke-width="2" stroke-linecap="round" stroke-linejoin="round"/>
<path d="M11.3333 9.33301H4.66667C4.29848 9.33301 4 9.63148 4 9.99967V13.9997C4 14.3679 4.29848 14.6663 4.66667 14.6663H11.3333C11.7015 14.6663 12 14.3679 12 13.9997V9.99967C12 9.63148 11.7015 9.33301 11.3333 9.33301Z" stroke="#374151" stroke-width="2" stroke-linecap="round" stroke-linejoin="round"/>
</g>
<defs>
<clipPath id="clip0_234_1638">
<rect width="16" height="16" fill="white"/>
</clipPath>
</defs>
</svg>
